<?xml version="1.0" encoding="UTF-8"?>
<!DOCTYPE svg PUBLIC "-//W3C//DTD SVG 1.1//EN" "http://www.w3.org/Graphics/SVG/1.1/DTD/svg11.dtd">
<!-- Creator: CorelDRAW 2018 (64 Bit Versão de avaliação) -->
<svg xmlns="http://www.w3.org/2000/svg" xml:space="preserve" width="116.765mm" height="136.192mm" version="1.1" style="shape-rendering:geometricPrecision; text-rendering:geometricPrecision; image-rendering:optimizeQuality; fill-rule:evenodd; clip-rule:evenodd"
viewBox="0 0 3773.31 4401.11"
 xmlns:xlink="http://www.w3.org/1999/xlink">
 <defs>
  <style type="text/css">
   <![CDATA[
    .fil1 {fill:#FEFEFE}
    .fil0 {fill:#00AFEF}
   ]]>
  </style>
 </defs>
 <g id="Camada_x0020_1">
  <metadata id="CorelCorpID_0Corel-Layer"/>
  <path class="fil0" d="M212.89 4401.11l1663.4 0 20.72 0 1663.4 0c442.58,-106.82 214.5,-1924.56 -866.91,-2443.85 -12.3,204.59 -644.06,974.02 -806.85,1191.55 -162.79,-217.53 -794.55,-986.96 -806.85,-1191.55 -1081.41,519.28 -1309.49,2337.03 -866.91,2443.85z"/>
  <path class="fil0" d="M1833.51 0.56c288.58,4.19 543.25,169.14 698.54,420.17 9.04,13.68 17.93,27.71 26.69,42.1 69.46,130.5 116.83,270.64 129.37,425.97 -0.34,2.66 -0.75,5.26 -1.2,7.81 2.7,31.85 4.12,64.12 4.12,96.78 0,548.42 -388.96,993 -868.77,993 -479.81,0 -868.77,-444.58 -868.77,-993 0,-280.02 101.43,-532.94 264.57,-713.44 4.32,-5.14 8.69,-10.28 13.14,-15.39 3.56,-3.37 7.14,-6.72 10.72,-10.06 83.45,-85.67 181.49,-153.14 289.34,-196.96 88.55,-37.85 185.13,-59.12 292.82,-57.46 3.15,0.14 6.3,0.3 9.44,0.47zm-844.82 1013.07c35.42,45.8 87.41,55.13 124.37,18.01 1.36,-243.64 97.11,-494.91 292.78,-754.5 237.96,240.9 488.74,293.11 764.07,-16.4 335.91,156.54 310.33,689.49 393.07,741.32 40.16,-7.29 71.19,-20.88 92.48,-42.27 0.34,11.16 0.57,22.35 0.57,33.6 0,526.33 -373.3,953.01 -833.78,953.01 -454.57,0 -824.13,-415.79 -833.56,-932.78z"/>
  <path class="fil1" d="M968.92 2016.7l4.57 524.52c98.86,31.65 173.02,101.73 205.47,236.68 197.7,145.96 194.27,358.06 182.53,581.2 10.23,39.88 38.11,45.87 47.3,75.03 13.37,99.66 14.26,189.63 -7.91,261.68 -22.04,47.26 -69.67,52.15 -116.96,22.45 -48.38,-39.36 -82.24,-6.45 -121.28,-40.28 -31.56,-24.81 -41.67,-56.54 -34.49,-105.55 13.56,-41.31 40.21,-74.4 117.66,-77.57 -0.47,-40.92 9.08,-79.36 48.51,-110.41 18.08,-200.97 19.8,-387.06 -79.91,-480.85 -74.51,-77.6 -158.96,-127.19 -261.59,-125.53l-25.69 0c-102.64,-1.66 -187.09,47.93 -261.6,125.53 -99.72,93.79 -97.99,279.88 -79.91,480.85 39.42,31.05 48.98,69.49 48.51,110.41 77.45,3.17 104.1,36.26 117.66,77.57 7.18,49.02 -2.93,80.74 -34.49,105.55 -39.04,33.83 -72.9,0.92 -121.28,40.28 -47.29,29.69 -94.92,24.81 -116.97,-22.45 -22.17,-72.05 -21.27,-162.02 -7.91,-261.68 9.2,-29.16 37.07,-35.15 47.3,-75.03 -11.74,-223.14 -15.17,-435.25 182.53,-581.2 32.45,-134.95 106.61,-205.03 205.47,-236.68l5.5 -488.89 56.97 -35.63zm-175.51 725.83c-11.01,-0.05 -18.4,-3.56 -12.81,-20.9 38.64,-81.05 93.8,-111.77 159.38,-110.73 65.58,-1.04 120.74,29.68 159.38,110.73 5.58,17.34 -1.8,20.85 -12.81,20.9 -97.16,-34.89 -195.98,-34.89 -293.14,0zm-163.08 887.5c-5.36,-16.63 -6.32,-35.34 -2.88,-56.12 3.99,-11.29 10.77,-18.29 22.97,-16.44 86.94,28.81 -2.91,118.62 -20.09,72.55zm613.75 0c5.36,-16.63 6.32,-35.34 2.88,-56.12 -3.99,-11.29 -10.76,-18.29 -22.97,-16.44 -86.94,28.81 2.91,118.62 20.08,72.55z"/>
  <path class="fil1" d="M2899.61 2078.34l-4.71 518.92c-98.45,15.99 -173.61,101.39 -173.61,204.36 0,114.36 92.71,207.06 207.07,207.06 114.36,0 207.06,-92.71 207.06,-207.06 0,-102.98 -75.18,-188.38 -173.63,-204.37l-5.38 -477.73 -56.79 -41.19zm28.74 601.81c67.09,0 121.48,54.39 121.48,121.48 0,67.09 -54.39,121.48 -121.48,121.48 -67.09,0 -121.48,-54.39 -121.48,-121.48 0,-67.09 54.39,-121.48 121.48,-121.48z"/>
 </g>
</svg>
