<?xml version="1.0" encoding="UTF-8"?>
<!DOCTYPE svg PUBLIC "-//W3C//DTD SVG 1.1//EN" "http://www.w3.org/Graphics/SVG/1.1/DTD/svg11.dtd">
<!-- Creator: CorelDRAW 2018 (64 Bit Versão de avaliação) -->
<svg xmlns="http://www.w3.org/2000/svg" xml:space="preserve" width="95.8965mm" height="139.306mm" version="1.1" style="shape-rendering:geometricPrecision; text-rendering:geometricPrecision; image-rendering:optimizeQuality; fill-rule:evenodd; clip-rule:evenodd"
viewBox="0 0 2687.26 3903.7"
 xmlns:xlink="http://www.w3.org/1999/xlink">
 <defs>
  <style type="text/css">
   <![CDATA[
    .fil0 {fill:#D2D3D5}
    .fil1 {fill:#00AFEF}
   ]]>
  </style>
 </defs>
 <g id="Camada_x0020_1">
  <metadata id="CorelCorpID_0Corel-Layer"/>
  <g id="_2986588813888">
   <path class="fil0" d="M1880.95 1397.78l-14.26 -644.49c-97.95,-525.44 -912.87,-513.93 -1008.69,0l-14.26 644.49 -368.4 -3.83 -2.96 -645.45c54.13,-1001.65 1726.21,-994.35 1779.93,0l-2.96 645.45 -368.4 3.83z"/>
   <path class="fil1" d="M276.29 1359.53l2134.69 0c136.08,0.98 262.61,144.44 274.37,287.08l1.91 1004.73c-29.03,1669.81 -2658.23,1669.81 -2687.26,0l1.91 -1004.73c11.76,-142.64 138.29,-286.1 274.37,-287.08zm1089.85 508.51c168.05,0 304.29,136.23 304.29,304.28 0,108.44 -56.74,203.62 -142.14,257.51l-0.32 538.4c-17.16,144.39 -318.14,154.38 -340.26,1.05l0 -550.49c-76.25,-55.29 -125.85,-145.08 -125.85,-246.47 0,-168.05 136.24,-304.28 304.29,-304.28z"/>
  </g>
 </g>
</svg>
