<?xml version="1.0" encoding="UTF-8"?>
<!DOCTYPE svg PUBLIC "-//W3C//DTD SVG 1.1//EN" "http://www.w3.org/Graphics/SVG/1.1/DTD/svg11.dtd">
<!-- Creator: CorelDRAW 2018 (64 Bit Versão de avaliação) -->
<svg xmlns="http://www.w3.org/2000/svg" xml:space="preserve" width="93.1997mm" height="104.723mm" version="1.1" style="shape-rendering:geometricPrecision; text-rendering:geometricPrecision; image-rendering:optimizeQuality; fill-rule:evenodd; clip-rule:evenodd"
viewBox="0 0 11620.66 13057.44"
 xmlns:xlink="http://www.w3.org/1999/xlink">
 <defs>
  <style type="text/css">
   <![CDATA[
    .str0 {stroke:#FEFEFE;stroke-width:124.69;stroke-miterlimit:22.9256}
    .fil1 {fill:#00AFEF}
    .fil0 {fill:#00AFEF;fill-rule:nonzero}
   ]]>
  </style>
 </defs>
 <g id="Camada_x0020_1">
  <metadata id="CorelCorpID_0Corel-Layer"/>
  <g id="_2986588904096">
   <path class="fil0 str0" d="M2227.46 9362.05c-3.27,0 -6.53,-0.1 -9.81,-0.3 -73.29,-4.71 -133.44,-63.49 -139.92,-136.68l-212.25 -2371.17 -87.92 239.3c-22.19,60.22 -80.2,100.71 -144.41,100.83l-1283.28 1.27c-0.05,0 -0.07,0 -0.1,0 -48.61,0 -88.04,-39.38 -88.09,-88 -0.05,-48.66 39.35,-88.13 87.99,-88.19l1267.86 -1.25 218 -593.33c14.21,-38.69 53.08,-62.45 94.24,-56.96 40.86,5.41 72.52,38.43 76.2,79.47l217.07 2425.17 341.19 -5293.81c3,-46.21 41.25,-82.22 87.55,-82.4 0.12,0 0.25,0 0.37,0 46.13,0 84.51,35.61 87.88,81.67l229.52 3146.34 188.66 -849.37c8.93,-40.14 44.41,-68.78 85.52,-68.99 0.17,0 0.34,0 0.49,0 40.93,0 76.47,28.17 85.78,68.05l268.31 1148.55 1067.52 -1.08 270.69 -2256.06c5.31,-44.29 42.89,-77.59 87.45,-77.59 0.15,0 0.27,0 0.42,0 44.76,0.21 82.24,33.94 87.13,78.43l293.92 2663.96 212.05 -1114.78c7.62,-40 41.64,-69.56 82.29,-71.53 41.71,-2.11 77.4,24.24 88.81,63.29l162.15 554.81 86.42 -241.29c13.62,-37.95 51.52,-61.77 91.33,-57.99 40.11,3.87 72.52,34.44 78.66,74.29l210.59 1365.62 134.21 -2084.57c2.79,-43.48 36.96,-78.39 80.32,-82.12 43.3,-3.82 83.03,24.8 93.2,67.14l268.61 1115.72 812.1 -1.66 278.25 -757.36c14.2,-38.66 52.99,-62.39 94.24,-56.96 40.86,5.41 72.5,38.43 76.2,79.47l181.74 2030.19 345.84 -5366.19c3,-46.21 41.25,-82.22 87.55,-82.42 0.15,0 0.24,0 0.39,0 46.12,0 84.51,35.62 87.85,81.68l255.78 3504.84 164.19 -739.26c8.9,-40.11 44.34,-68.71 85.43,-68.99 0.2,0 0.4,0 0.55,0 40.85,0 76.39,28.09 85.78,67.92l307.04 1304.6 1413.82 0c48.68,0 88.1,39.45 88.1,88.09 0,48.65 -39.43,88.1 -88.1,88.1l-1483.57 0c-40.91,0 -76.39,-28.12 -85.78,-67.92l-234.78 -997.63 -203.37 915.69c-5.36,24.23 -20.6,45.73 -41.69,58.89 -20.74,12.93 -46.05,17.18 -69.9,11.75 -40.36,-9.14 -70.05,-44.11 -72.37,-85.53l-203.51 -2789.04 -324.01 5027.16c-3.59,56.93 -52.94,100.76 -109.97,96.79 -51.61,-3.43 -92.17,-43.08 -96.69,-94.31l-230.76 -2577.59 -159.37 433.68c-15.34,42.06 -55.9,70.45 -100.92,70.45l-913.18 1.85c-50.49,0 -93.85,-34.16 -105.65,-83.1l-144.92 -601.98 -134.3 2085.8c-4.18,62.04 -58.85,108.59 -119.51,105.07 -52.26,-3.28 -96.06,-43.28 -104.12,-95.1l-246.53 -1598.83 -30.82 86.13c-34.89,97.15 -185.97,116.66 -222.18,-6.1l-110.76 -378.99 -201.43 1058.94c-13.37,70.3 -81.36,116.66 -151.75,103.23 -56.46,-10.79 -98.51,-56.36 -104.79,-113.41l-243.9 -2210.75 -183.81 1532.11c-8.12,68.12 -66.07,119.54 -134.82,119.54l-1134.45 1.12c-63.95,0 -118.76,-43.45 -133.39,-105.68l-187.46 -802.53 -158.86 715.17c-16.76,75.19 -91.53,122.55 -166.6,106.03 -59.5,-13.2 -104.34,-65.01 -108.96,-125.99l-154.37 -2116.13 -280.51 4352.24c-2.54,39.94 -20.55,76.58 -50.71,103.08 -27.66,24.31 -62.45,37.39 -98.91,37.39z"/>
   <path class="fil1 str0" d="M5810.33 62.34c3174.52,0 5747.98,2573.45 5747.98,5747.99 0,3107.11 -2465.44,5637.99 -5546.71,5744.09 -273.05,2179.25 -2831.47,1671.78 -2811.11,-93.68l1.36 -527.27c-216.19,-110.32 -424.5,-233.89 -623.81,-369.68 -105.98,359.46 -438.44,621.84 -832.24,621.84 -479.17,0 -867.61,-388.45 -867.61,-867.61 0,-362.45 222.28,-672.93 537.93,-802.7 -844.52,-1000.5 -1353.77,-2293.2 -1353.77,-3704.99 0,-3174.54 2573.46,-5747.99 5747.99,-5747.99zm-139.57 11107.65l-20.6 -2729.23c-546.27,-174.88 -956.03,-562.13 -1135.36,-1307.8 -1092.43,-806.49 -1073.46,-1978.51 -1008.59,-3211.51 -56.54,-220.37 -210.57,-253.47 -261.39,-414.62 -73.85,-550.67 -78.81,-1047.83 43.71,-1445.95 121.78,-261.12 384.99,-288.15 646.28,-124.06 267.34,217.53 454.42,35.65 670.15,222.6 174.36,137.09 230.24,312.4 190.58,583.27 -74.95,228.26 -222.2,411.08 -650.16,428.63 2.61,226.12 -50.17,438.52 -268.02,610.07 -99.9,1110.51 -109.42,2138.77 441.59,2657.01 411.71,428.81 878.35,702.81 1445.47,693.65l141.97 0c567.12,9.16 1033.76,-264.84 1445.47,-693.65 551,-518.24 541.48,-1546.5 441.57,-2657.01 -217.85,-171.55 -270.63,-383.96 -268.01,-610.07 -427.96,-17.56 -575.21,-200.37 -650.16,-428.63 -39.66,-270.87 16.21,-446.17 190.58,-583.27 215.73,-186.95 402.81,-5.07 670.13,-222.6 261.3,-164.09 524.51,-137.05 646.3,124.06 122.53,398.12 117.57,895.28 43.7,1445.95 -50.82,161.14 -204.83,194.25 -261.38,414.62 64.85,1233 83.84,2405.02 -1008.59,3211.51 -179.34,745.67 -589.09,1132.92 -1135.37,1307.8l-20.87 2767 15.91 1.83 0.12 11.37c2895.32,-108.06 5209.46,-2488.89 5209.46,-5410.64 0,-2990.57 -2424.34,-5414.91 -5414.91,-5414.91 -2990.58,0 -5414.92,2424.34 -5414.92,5414.91 0,1254.97 426.99,2410.17 1143.53,3328.39 219.73,-1618.09 1944.17,-1420.19 2008.85,31.12 -6.9,540.09 -17.38,1050.36 -25.14,1549.52 641.36,299.49 1351.08,477.01 2099.42,502.59l41.96 -52.74 6.73 0.79zm974.5 -3841.59c60.87,0.29 101.67,19.69 70.81,115.51 -213.54,447.85 -518.31,617.62 -880.68,611.84 -362.39,5.77 -667.14,-164 -880.68,-611.84 -30.86,-95.82 9.94,-115.22 70.8,-115.51 536.86,192.76 1082.88,192.78 1619.75,0zm901.13 -4903.99c29.64,91.89 34.91,195.27 15.92,310.09 -22.04,62.41 -59.49,101.07 -126.9,90.81 -480.4,-159.2 16.11,-655.45 110.98,-400.9zm-3391.38 0c-29.63,91.89 -34.9,195.27 -15.92,310.09 22.06,62.41 59.49,101.07 126.92,90.81 480.4,-159.2 -16.11,-655.45 -111,-400.9zm-2271.65 7036.97c-219.73,-1330.17 1275.71,-1419.08 1323.35,-419.97l-3.89 1515.43c-209.41,-115.31 -410.4,-244.02 -601.76,-385.07 -61.96,-364.83 -351.64,-652.06 -717.7,-710.4zm201.11 725.52c-83.22,-70.88 -164.57,-143.87 -243.56,-219.35 -30.31,-8.2 -62.19,-12.62 -95.11,-12.62 -200.53,0 -363.1,162.57 -363.1,363.1 0,200.53 162.57,363.1 363.1,363.1 200.53,0 363.1,-162.57 363.1,-363.1 0,-46.25 -8.67,-90.46 -24.43,-131.13z"/>
  </g>
 </g>
</svg>
